<?xml version="1.0" encoding="UTF-8" standalone="no" ?>
<!DOCTYPE svg PUBLIC "-//W3C//DTD SVG 1.1//EN" "http://www.w3.org/Graphics/SVG/1.1/DTD/svg11.dtd">
<svg xmlns="http://www.w3.org/2000/svg" xmlns:xlink="http://www.w3.org/1999/xlink" version="1.1" width="640" height="480" viewBox="0 0 640 480" xml:space="preserve">
<desc>Created with Fabric.js 3.6.6</desc>
<defs>
</defs>
<g transform="matrix(0.73 0 0 0.73 441.14 358.32)" clip-path="url(#CLIPPATH_6)"  >
<clipPath id="CLIPPATH_6" >
	<path transform="matrix(1 0 0 1 -163.76 -0.11) translate(-1002.19, -454.22)" d="M 564.382812 287 L 1440 287 L 1440 621.445312 L 564.382812 621.445312 Z M 564.382812 287" stroke-linecap="round" />
</clipPath>
<path style="stroke: none; stroke-width: 1; stroke-dasharray: none; stroke-linecap: butt; stroke-dashoffset: 0; stroke-linejoin: miter; stroke-miterlimit: 4; fill: rgb(216,67,67); fill-rule: evenodd; opacity: 1;"  transform=" translate(-1165.96, -454.33)" d="M 564.332031 621.117188 C 579.625 578.925781 598.789062 589.128906 626.828125 562.359375 C 655.441406 535.019531 682.183594 490.175781 721.46875 477.015625 C 745.460938 468.964844 769.453125 484.726562 794.144531 474.3125 C 813.929688 465.953125 831.558594 452.21875 848.695312 439.546875 C 857.863281 432.820312 868.039062 423.398438 880.191406 423.421875 C 892.136719 423.449219 901.507812 434.015625 909.921875 441.183594 C 926.746094 455.542969 953.257812 478.441406 977.402344 473.769531 C 997.757812 469.847656 1014.6875 452.660156 1032.058594 442.300781 C 1046.859375 433.496094 1065.136719 431.707031 1079.105469 421.632812 C 1101.824219 405.222656 1132.152344 369.804688 1152.664062 348.929688 C 1166.96875 334.390625 1194.804688 295.859375 1212.902344 288.511719 C 1227.363281 282.644531 1259.222656 305.441406 1277.320312 305.257812 C 1303.078125 305 1323.511719 282.148438 1350.671875 292.121094 C 1376.816406 301.726562 1383.410156 339.195312 1410.933594 347.347656 C 1446.945312 358.019531 1466.914062 337.117188 1500.953125 367.234375 C 1515.699219 380.269531 1524.683594 397.40625 1536.34375 412.960938 C 1558.722656 442.84375 1582.324219 471.898438 1604.8125 501.757812 C 1619.664062 521.542969 1632.28125 543.507812 1650.042969 560.984375 C 1661.75 572.484375 1681.925781 573.238281 1696.777344 578.925781 C 1721.46875 588.402344 1746.265625 604.421875 1767.582031 620.128906 Z M 564.332031 621.117188" stroke-linecap="round" />
</g>
</svg>