<?xml version="1.0" encoding="UTF-8" standalone="no" ?>
<!DOCTYPE svg PUBLIC "-//W3C//DTD SVG 1.1//EN" "http://www.w3.org/Graphics/SVG/1.1/DTD/svg11.dtd">
<svg xmlns="http://www.w3.org/2000/svg" xmlns:xlink="http://www.w3.org/1999/xlink" version="1.1" width="300" height="200" viewBox="0 0 640 480" xml:space="preserve">
<desc>Created with Fabric.js 3.6.6</desc>
<defs>
</defs>
<g transform="matrix(0.35 0 0 0.35 204.81 334.67)"  >
<path style="stroke: none; stroke-width: 1; stroke-dasharray: none; stroke-linecap: butt; stroke-dashoffset: 0; stroke-linejoin: miter; stroke-miterlimit: 4; fill: rgb(253,118,75); fill-rule: evenodd; opacity: 1;"  transform=" translate(-568.12, -569.64)" d="M 2113.105469 997.949219 C 2073.832031 889.597656 2024.621094 915.804688 1952.609375 847.058594 C 1879.132812 776.847656 1810.453125 661.695312 1709.570312 627.890625 C 1647.960938 607.21875 1586.351562 647.691406 1522.941406 620.953125 C 1472.132812 599.484375 1426.859375 564.210938 1382.851562 531.671875 C 1359.3125 514.402344 1333.175781 490.199219 1301.972656 490.265625 C 1271.300781 490.332031 1247.230469 517.472656 1225.625 535.875 C 1182.417969 572.746094 1114.339844 631.558594 1052.332031 619.554688 C 1000.054688 609.488281 956.582031 565.347656 911.976562 538.742188 C 873.96875 516.136719 827.027344 511.539062 791.15625 485.667969 C 732.8125 443.527344 654.933594 352.578125 602.257812 298.96875 C 565.519531 261.628906 494.039062 162.679688 447.566406 143.8125 C 410.425781 128.742188 328.613281 187.285156 282.140625 186.816406 C 215.996094 186.152344 163.519531 127.472656 93.773438 153.078125 C 26.632812 177.75 9.695312 273.964844 -60.984375 294.902344 C -153.464844 322.304688 -204.738281 268.632812 -292.15625 345.976562 C -330.027344 379.449219 -353.097656 423.457031 -383.035156 463.394531 C -440.511719 540.140625 -501.121094 614.753906 -558.863281 691.433594 C -597.003906 742.242188 -629.410156 798.652344 -675.015625 843.523438 C -705.089844 873.0625 -756.894531 874.996094 -795.035156 889.597656 C -858.445312 913.9375 -922.125 955.074219 -976.867188 995.414062 Z M 2113.105469 997.949219" stroke-linecap="round" />
</g>
</svg>