<?xml version="1.0" encoding="UTF-8" standalone="no" ?>
<!DOCTYPE svg PUBLIC "-//W3C//DTD SVG 1.1//EN" "http://www.w3.org/Graphics/SVG/1.1/DTD/svg11.dtd">
<svg xmlns="http://www.w3.org/2000/svg" xmlns:xlink="http://www.w3.org/1999/xlink" version="1.1" width="640" height="480" viewBox="0 0 640 480" xml:space="preserve">
<desc>Created with Fabric.js 3.6.6</desc>
<defs>
</defs>
<g transform="matrix(0.45 0 0 0.45 674.95 556.13)" clip-path="url(#CLIPPATH_38)"  >
<clipPath id="CLIPPATH_38" >
	<path transform="matrix(1 0 0 1 -124.71 -30.7) translate(-1052.66, -627.5)" d="M 665.320312 445 L 1440 445 L 1440 810 L 665.320312 810 Z M 665.320312 445" stroke-linecap="round" />
</clipPath>
<path style="stroke: none; stroke-width: 1; stroke-dasharray: none; stroke-linecap: butt; stroke-dashoffset: 0; stroke-linejoin: miter; stroke-miterlimit: 4; fill: rgb(255,67,67); fill-rule: nonzero; opacity: 1;"  transform=" translate(-1177.38, -658.2)" d="M 1403.125 445.164062 L 1399.953125 445.417969 C 1390.578125 446.777344 1373.941406 453.570312 1350.042969 465.800781 C 1317.753906 468.183594 1298.769531 471.363281 1293.078125 475.332031 C 1237.148438 505.695312 1194.933594 535.214844 1166.425781 563.890625 C 1161.546875 567.324219 1148.074219 570.375 1126.007812 573.039062 C 1120.886719 574.636719 1116.789062 576.496094 1113.714844 578.609375 L 1042.695312 633.453125 C 1033.183594 637 1024.984375 638.835938 1018.09375 638.957031 C 982.574219 635.625 960.808594 635.8125 952.800781 639.507812 C 944.535156 642.082031 919.269531 654.941406 877.003906 678.085938 C 836.511719 689.167969 811.394531 697.375 801.652344 702.703125 C 780.332031 706.78125 734.914062 762.988281 665.402344 871.324219 L 1689.347656 857.796875 C 1673.785156 839.75 1664.628906 826.503906 1661.886719 818.066406 C 1656.363281 771.996094 1648.226562 742.824219 1637.472656 730.539062 C 1632.105469 721.855469 1611.820312 703.992188 1576.613281 676.945312 C 1566.597656 666.140625 1559.445312 656.679688 1555.152344 648.5625 C 1541.191406 592.464844 1529.601562 558.636719 1520.378906 547.085938 C 1503.113281 521.742188 1474.183594 491.683594 1433.589844 456.902344 C 1423.835938 448.355469 1413.679688 444.441406 1403.125 445.164062" stroke-linecap="round" />
</g>
<g transform="matrix(0.64 0 0 0.64 472.9 388.08)" clip-path="url(#CLIPPATH_39)"  >
<clipPath id="CLIPPATH_39" >
	<path transform="matrix(1 0 0 1 -124.71 -30.7) translate(-1052.66, -627.5)" d="M 665.320312 445 L 1440 445 L 1440 810 L 665.320312 810 Z M 665.320312 445" stroke-linecap="round" />
</clipPath>
<path style="stroke: none; stroke-width: 1; stroke-dasharray: none; stroke-linecap: butt; stroke-dashoffset: 0; stroke-linejoin: miter; stroke-miterlimit: 4; fill: rgb(255,67,67); fill-rule: nonzero; opacity: 1;"  transform=" translate(-1177.38, -658.2)" d="M 1403.125 445.164062 L 1399.953125 445.417969 C 1390.578125 446.777344 1373.941406 453.570312 1350.042969 465.800781 C 1317.753906 468.183594 1298.769531 471.363281 1293.078125 475.332031 C 1237.148438 505.695312 1194.933594 535.214844 1166.425781 563.890625 C 1161.546875 567.324219 1148.074219 570.375 1126.007812 573.039062 C 1120.886719 574.636719 1116.789062 576.496094 1113.714844 578.609375 L 1042.695312 633.453125 C 1033.183594 637 1024.984375 638.835938 1018.09375 638.957031 C 982.574219 635.625 960.808594 635.8125 952.800781 639.507812 C 944.535156 642.082031 919.269531 654.941406 877.003906 678.085938 C 836.511719 689.167969 811.394531 697.375 801.652344 702.703125 C 780.332031 706.78125 734.914062 762.988281 665.402344 871.324219 L 1689.347656 857.796875 C 1673.785156 839.75 1664.628906 826.503906 1661.886719 818.066406 C 1656.363281 771.996094 1648.226562 742.824219 1637.472656 730.539062 C 1632.105469 721.855469 1611.820312 703.992188 1576.613281 676.945312 C 1566.597656 666.140625 1559.445312 656.679688 1555.152344 648.5625 C 1541.191406 592.464844 1529.601562 558.636719 1520.378906 547.085938 C 1503.113281 521.742188 1474.183594 491.683594 1433.589844 456.902344 C 1423.835938 448.355469 1413.679688 444.441406 1403.125 445.164062" stroke-linecap="round" />
</g>
<g transform="matrix(0.64 0 0 0.64 235.03 409.61)" clip-path="url(#CLIPPATH_40)"  >
<clipPath id="CLIPPATH_40" >
	<path transform="matrix(1 0 0 1 -0.01 -27.27) translate(-806.32, -664)" d="M 390.070312 518 L 1222.570312 518 L 1222.570312 810 L 390.070312 810 Z M 390.070312 518" stroke-linecap="round" />
</clipPath>
<path style="stroke: none; stroke-width: 1; stroke-dasharray: none; stroke-linecap: butt; stroke-dashoffset: 0; stroke-linejoin: miter; stroke-miterlimit: 4; fill: rgb(255,76,76); fill-rule: nonzero; opacity: 1;"  transform=" translate(-806.33, -691.27)" d="M 989.855469 518.085938 L 987.273438 518.292969 C 979.65625 519.398438 966.128906 524.921875 946.699219 534.863281 C 920.453125 536.800781 905.019531 539.382812 900.394531 542.609375 C 854.929688 567.296875 820.609375 591.292969 797.433594 614.601562 C 793.46875 617.394531 782.515625 619.875 764.578125 622.039062 C 760.414062 623.339844 757.082031 624.847656 754.582031 626.570312 L 696.847656 671.152344 C 689.117188 674.035156 682.453125 675.527344 676.851562 675.625 C 647.976562 672.917969 630.28125 673.070312 623.773438 676.074219 C 617.050781 678.164062 596.511719 688.621094 562.15625 707.4375 C 529.238281 716.445312 508.820312 723.113281 500.898438 727.445312 C 483.570312 730.761719 446.648438 776.453125 390.136719 864.523438 L 1222.53125 853.527344 C 1209.878906 838.855469 1202.4375 828.089844 1200.207031 821.226562 C 1195.71875 783.777344 1189.101562 760.0625 1180.363281 750.078125 C 1176 743.015625 1159.507812 728.492188 1130.886719 706.507812 C 1122.746094 697.722656 1116.929688 690.03125 1113.441406 683.433594 C 1102.089844 637.832031 1092.667969 610.332031 1085.171875 600.941406 C 1071.136719 580.339844 1047.621094 555.902344 1014.621094 527.628906 C 1006.6875 520.679688 998.433594 517.5 989.855469 518.085938" stroke-linecap="round" />
</g>
</svg>