<?xml version="1.0" encoding="UTF-8" standalone="no" ?>
<!DOCTYPE svg PUBLIC "-//W3C//DTD SVG 1.1//EN" "http://www.w3.org/Graphics/SVG/1.1/DTD/svg11.dtd">
<svg xmlns="http://www.w3.org/2000/svg" xmlns:xlink="http://www.w3.org/1999/xlink" version="1.1" width="640" height="480" viewBox="0 0 640 480" xml:space="preserve">
<desc>Created with Fabric.js 3.6.6</desc>
<defs>
</defs>
<g transform="matrix(1.36 0 0 1.36 367.66 502.56)" clip-path="url(#CLIPPATH_4)"  >
<clipPath id="CLIPPATH_4" >
	<path transform="matrix(1 0 0 1 118.83 -115.08) translate(-393.15, -711.5)" d="M 0 613 L 786.296875 613 L 786.296875 810 L 0 810 Z M 0 613" stroke-linecap="round" />
</clipPath>
<path style="stroke: none; stroke-width: 1; stroke-dasharray: none; stroke-linecap: butt; stroke-dashoffset: 0; stroke-linejoin: miter; stroke-miterlimit: 4; fill: rgb(255,76,76); fill-rule: nonzero; opacity: 1;"  transform=" translate(-274.32, -826.58)" d="M 48.574219 613.546875 L 51.746094 613.800781 C 61.121094 615.160156 77.757812 621.953125 101.65625 634.179688 C 133.945312 636.566406 152.933594 639.742188 158.621094 643.714844 C 214.550781 674.078125 256.765625 703.597656 285.273438 732.269531 C 290.152344 735.707031 303.625 738.757812 325.691406 741.421875 C 330.8125 743.019531 334.910156 744.878906 337.984375 746.992188 L 409.007812 801.835938 C 418.515625 805.382812 426.714844 807.21875 433.605469 807.339844 C 469.125 804.007812 490.890625 804.191406 498.898438 807.890625 C 507.167969 810.464844 532.429688 823.324219 574.695312 846.46875 C 615.1875 857.550781 640.304688 865.757812 650.046875 871.085938 C 671.367188 875.164062 716.785156 931.371094 786.296875 1039.707031 L -237.648438 1026.179688 C -222.082031 1008.132812 -212.929688 994.886719 -210.1875 986.445312 C -204.664062 940.378906 -196.527344 911.203125 -185.773438 898.921875 C -180.40625 890.238281 -160.121094 872.375 -124.914062 845.328125 C -114.898438 834.519531 -107.746094 825.0625 -103.453125 816.945312 C -89.492188 760.847656 -77.898438 727.019531 -68.679688 715.46875 C -51.414062 690.125 -22.484375 660.066406 18.109375 625.285156 C 27.863281 616.738281 38.019531 612.824219 48.574219 613.546875" stroke-linecap="round" />
</g>
</svg>