<?xml version="1.0" encoding="UTF-8" standalone="no" ?>
<!DOCTYPE svg PUBLIC "-//W3C//DTD SVG 1.1//EN" "http://www.w3.org/Graphics/SVG/1.1/DTD/svg11.dtd">
<svg xmlns="http://www.w3.org/2000/svg" xmlns:xlink="http://www.w3.org/1999/xlink" version="1.1" width="640" height="480" viewBox="0 0 640 480" xml:space="preserve">
<desc>Created with Fabric.js 3.6.6</desc>
<defs>
</defs>
<g transform="matrix(0.91 0 0 0.91 223.53 336.63)" clip-path="url(#CLIPPATH_9)"  >
<clipPath id="CLIPPATH_9" >
	<path transform="matrix(1 0 0 1 103 -0.01) translate(-347.74, -422.72)" d="M 0 263 L 695.472656 263 L 695.472656 582.441406 L 0 582.441406 Z M 0 263" stroke-linecap="round" />
</clipPath>
<path style="stroke: none; stroke-width: 1; stroke-dasharray: none; stroke-linecap: butt; stroke-dashoffset: 0; stroke-linejoin: miter; stroke-miterlimit: 4; fill: rgb(255,106,97); fill-rule: nonzero; opacity: 1;"  transform=" translate(-244.74, -422.73)" d="M 407.390625 263.304688 L 407.097656 263.316406 C 404.007812 262.695312 400.773438 265.886719 397.398438 272.890625 C 384.589844 313.4375 374.425781 338.304688 366.902344 347.5 C 365.84375 350.308594 354.597656 358.726562 333.167969 372.753906 C 329.011719 375.566406 324.726562 376.769531 320.3125 376.363281 C 309.261719 368.660156 302.34375 365.207031 299.558594 366.007812 L 269.230469 387.238281 C 266.683594 388.679688 262.960938 388.507812 258.0625 386.722656 C 252.304688 382.503906 242.921875 361.421875 229.925781 323.472656 C 228.445312 319.988281 226.425781 318.507812 223.863281 319.027344 C 185.035156 386.585938 163.992188 420.265625 160.730469 420.0625 C 157.453125 424.3125 148.402344 427.460938 133.574219 429.496094 C 119.394531 439.910156 110.59375 445.695312 107.175781 446.851562 C 100.25 447.761719 96.027344 446.644531 94.507812 443.496094 L 68.617188 395.5625 C 66.746094 394.339844 65.070312 393.679688 63.585938 393.589844 C 52.148438 394.824219 44.28125 394.363281 39.976562 392.210938 C 36.648438 390.925781 28.890625 384.007812 16.707031 371.464844 C 14.085938 369.570312 10.691406 369.449219 6.53125 371.101562 L -38.191406 437.480469 C -40.457031 439.878906 -42.710938 441.25 -44.957031 441.597656 C -56.664062 437.246094 -65.261719 436.921875 -70.746094 440.625 C -94.144531 476.953125 -115.929688 505.394531 -136.105469 525.960938 C -144.148438 534.269531 -148.789062 538.390625 -150.023438 538.320312 C -167.847656 539.441406 -178.96875 542.714844 -183.375 548.152344 C -188.40625 552.5 -195.945312 563.859375 -205.992188 582.226562 L 695.46875 563.808594 C 689.378906 550.847656 664.695312 519.484375 621.421875 469.722656 C 616.789062 466.929688 611.78125 467.863281 606.394531 472.523438 C 603.839844 474.894531 596.113281 487.609375 583.226562 510.664062 C 580.753906 513.519531 577.871094 514.292969 574.582031 512.988281 C 563.003906 501.527344 542.441406 468.09375 512.886719 412.6875 C 512.1875 411.371094 509.539062 411.609375 504.953125 413.40625 C 500.574219 415.441406 494.671875 419.511719 487.246094 425.621094 C 484.449219 426.316406 481.894531 425.59375 479.574219 423.460938 L 419.707031 278.816406 C 415.011719 268.476562 410.90625 263.304688 407.390625 263.304688" stroke-linecap="round" />
</g>
</svg>